<svg width="381" height="25" viewBox="0 0 381 25" fill="none" xmlns="http://www.w3.org/2000/svg">
<path d="M9.824 6.848V18H8.368V12.944H2.688V18H1.232V6.848H2.688V11.744H8.368V6.848H9.824ZM17.3661 18.112C16.3315 18.112 15.3875 17.872 14.5341 17.392C13.6808 16.9013 13.0035 16.224 12.5021 15.36C12.0115 14.4853 11.7661 13.504 11.7661 12.416C11.7661 11.328 12.0115 10.352 12.5021 9.488C13.0035 8.61333 13.6808 7.936 14.5341 7.456C15.3875 6.96533 16.3315 6.72 17.3661 6.72C18.4115 6.72 19.3608 6.96533 20.2141 7.456C21.0675 7.936 21.7395 8.608 22.2301 9.472C22.7208 10.336 22.9661 11.3173 22.9661 12.416C22.9661 13.5147 22.7208 14.496 22.2301 15.36C21.7395 16.224 21.0675 16.9013 20.2141 17.392C19.3608 17.872 18.4115 18.112 17.3661 18.112ZM17.3661 16.848C18.1448 16.848 18.8435 16.6667 19.4621 16.304C20.0915 15.9413 20.5821 15.424 20.9341 14.752C21.2968 14.08 21.4781 13.3013 21.4781 12.416C21.4781 11.52 21.2968 10.7413 20.9341 10.08C20.5821 9.408 20.0968 8.89067 19.4781 8.528C18.8595 8.16533 18.1555 7.984 17.3661 7.984C16.5768 7.984 15.8728 8.16533 15.2541 8.528C14.6355 8.89067 14.1448 9.408 13.7821 10.08C13.4301 10.7413 13.2541 11.52 13.2541 12.416C13.2541 13.3013 13.4301 14.08 13.7821 14.752C14.1448 15.424 14.6355 15.9413 15.2541 16.304C15.8835 16.6667 16.5875 16.848 17.3661 16.848ZM36.2003 6.928V18H34.7443V9.744L31.0643 18H30.0403L26.3443 9.728V18H24.8883V6.928H26.4563L30.5523 16.08L34.6483 6.928H36.2003ZM40.1255 8.032V11.76H44.1895V12.96H40.1255V16.8H44.6695V18H38.6695V6.832H44.6695V8.032H40.1255Z" fill="black"/>
<rect y="24" width="15" height="1" fill="black"/>
<path d="M90.688 10.112C90.688 11.04 90.368 11.8133 89.728 12.432C89.0987 13.04 88.1333 13.344 86.832 13.344H84.688V18H83.232V6.848H86.832C88.0907 6.848 89.0453 7.152 89.696 7.76C90.3573 8.368 90.688 9.152 90.688 10.112ZM86.832 12.144C87.6427 12.144 88.24 11.968 88.624 11.616C89.008 11.264 89.2 10.7627 89.2 10.112C89.2 8.736 88.4107 8.048 86.832 8.048H84.688V12.144H86.832ZM98.3696 18L95.7136 13.44H93.9536V18H92.4976V6.848H96.0976C96.9403 6.848 97.6496 6.992 98.2256 7.28C98.8123 7.568 99.2496 7.95733 99.5376 8.448C99.8256 8.93867 99.9696 9.49867 99.9696 10.128C99.9696 10.896 99.7456 11.5733 99.2976 12.16C98.8603 12.7467 98.199 13.136 97.3136 13.328L100.114 18H98.3696ZM93.9536 12.272H96.0976C96.887 12.272 97.479 12.08 97.8736 11.696C98.2683 11.3013 98.4656 10.7787 98.4656 10.128C98.4656 9.46667 98.2683 8.95467 97.8736 8.592C97.4896 8.22933 96.8976 8.048 96.0976 8.048H93.9536V12.272ZM107.288 18.112C106.253 18.112 105.309 17.872 104.456 17.392C103.603 16.9013 102.925 16.224 102.424 15.36C101.933 14.4853 101.688 13.504 101.688 12.416C101.688 11.328 101.933 10.352 102.424 9.488C102.925 8.61333 103.603 7.936 104.456 7.456C105.309 6.96533 106.253 6.72 107.288 6.72C108.333 6.72 109.283 6.96533 110.136 7.456C110.989 7.936 111.661 8.608 112.152 9.472C112.643 10.336 112.888 11.3173 112.888 12.416C112.888 13.5147 112.643 14.496 112.152 15.36C111.661 16.224 110.989 16.9013 110.136 17.392C109.283 17.872 108.333 18.112 107.288 18.112ZM107.288 16.848C108.067 16.848 108.765 16.6667 109.384 16.304C110.013 15.9413 110.504 15.424 110.856 14.752C111.219 14.08 111.4 13.3013 111.4 12.416C111.4 11.52 111.219 10.7413 110.856 10.08C110.504 9.408 110.019 8.89067 109.4 8.528C108.781 8.16533 108.077 7.984 107.288 7.984C106.499 7.984 105.795 8.16533 105.176 8.528C104.557 8.89067 104.067 9.408 103.704 10.08C103.352 10.7413 103.176 11.52 103.176 12.416C103.176 13.3013 103.352 14.08 103.704 14.752C104.067 15.424 104.557 15.9413 105.176 16.304C105.805 16.6667 106.509 16.848 107.288 16.848ZM118.282 6.848C119.498 6.848 120.549 7.07733 121.434 7.536C122.33 7.984 123.013 8.62933 123.482 9.472C123.962 10.3147 124.202 11.3067 124.202 12.448C124.202 13.5893 123.962 14.5813 123.482 15.424C123.013 16.256 122.33 16.896 121.434 17.344C120.549 17.7813 119.498 18 118.282 18H114.81V6.848H118.282ZM118.282 16.8C119.722 16.8 120.821 16.4213 121.578 15.664C122.335 14.896 122.714 13.824 122.714 12.448C122.714 11.0613 122.33 9.97867 121.562 9.2C120.805 8.42133 119.711 8.032 118.282 8.032H116.266V16.8H118.282ZM127.547 6.848V13.904C127.547 14.896 127.787 15.632 128.267 16.112C128.757 16.592 129.435 16.832 130.299 16.832C131.152 16.832 131.819 16.592 132.299 16.112C132.789 15.632 133.035 14.896 133.035 13.904V6.848H134.491V13.888C134.491 14.816 134.304 15.6 133.931 16.24C133.557 16.8693 133.051 17.3387 132.411 17.648C131.781 17.9573 131.072 18.112 130.283 18.112C129.493 18.112 128.779 17.9573 128.139 17.648C127.509 17.3387 127.008 16.8693 126.635 16.24C126.272 15.6 126.091 14.816 126.091 13.888V6.848H127.547ZM136.376 12.416C136.376 11.328 136.621 10.352 137.112 9.488C137.602 8.61333 138.269 7.93067 139.112 7.44C139.965 6.94933 140.909 6.704 141.944 6.704C143.16 6.704 144.221 6.99733 145.128 7.584C146.034 8.17067 146.696 9.00267 147.112 10.08H145.368C145.058 9.408 144.61 8.89067 144.024 8.528C143.448 8.16533 142.754 7.984 141.944 7.984C141.165 7.984 140.466 8.16533 139.848 8.528C139.229 8.89067 138.744 9.408 138.392 10.08C138.04 10.7413 137.864 11.52 137.864 12.416C137.864 13.3013 138.04 14.08 138.392 14.752C138.744 15.4133 139.229 15.9253 139.848 16.288C140.466 16.6507 141.165 16.832 141.944 16.832C142.754 16.832 143.448 16.656 144.024 16.304C144.61 15.9413 145.058 15.424 145.368 14.752H147.112C146.696 15.8187 146.034 16.6453 145.128 17.232C144.221 17.808 143.16 18.096 141.944 18.096C140.909 18.096 139.965 17.856 139.112 17.376C138.269 16.8853 137.602 16.208 137.112 15.344C136.621 14.48 136.376 13.504 136.376 12.416ZM156.143 6.848V8.032H153.103V18H151.647V8.032H148.591V6.848H156.143ZM161.471 18.112C160.735 18.112 160.074 17.984 159.487 17.728C158.911 17.4613 158.458 17.0987 158.127 16.64C157.796 16.1707 157.626 15.632 157.615 15.024H159.167C159.22 15.5467 159.434 15.9893 159.807 16.352C160.191 16.704 160.746 16.88 161.471 16.88C162.164 16.88 162.708 16.7093 163.103 16.368C163.508 16.016 163.711 15.568 163.711 15.024C163.711 14.5973 163.594 14.2507 163.359 13.984C163.124 13.7173 162.831 13.5147 162.479 13.376C162.127 13.2373 161.652 13.088 161.055 12.928C160.319 12.736 159.727 12.544 159.279 12.352C158.842 12.16 158.463 11.8613 158.143 11.456C157.834 11.04 157.679 10.4853 157.679 9.792C157.679 9.184 157.834 8.64533 158.143 8.176C158.452 7.70667 158.884 7.344 159.439 7.088C160.004 6.832 160.65 6.704 161.375 6.704C162.42 6.704 163.274 6.96533 163.935 7.488C164.607 8.01067 164.986 8.704 165.071 9.568H163.471C163.418 9.14133 163.194 8.768 162.799 8.448C162.404 8.11733 161.882 7.952 161.231 7.952C160.623 7.952 160.127 8.112 159.743 8.432C159.359 8.74133 159.167 9.17867 159.167 9.744C159.167 10.1493 159.279 10.48 159.503 10.736C159.738 10.992 160.02 11.1893 160.351 11.328C160.692 11.456 161.167 11.6053 161.775 11.776C162.511 11.9787 163.103 12.1813 163.551 12.384C163.999 12.576 164.383 12.88 164.703 13.296C165.023 13.7013 165.183 14.256 165.183 14.96C165.183 15.504 165.039 16.016 164.751 16.496C164.463 16.976 164.036 17.3653 163.471 17.664C162.906 17.9627 162.239 18.112 161.471 18.112Z" fill="black"/>
<path d="M212.68 10.08C212.371 9.42933 211.923 8.928 211.336 8.576C210.749 8.21333 210.067 8.032 209.288 8.032C208.509 8.032 207.805 8.21333 207.176 8.576C206.557 8.928 206.067 9.44 205.704 10.112C205.352 10.7733 205.176 11.5413 205.176 12.416C205.176 13.2907 205.352 14.0587 205.704 14.72C206.067 15.3813 206.557 15.8933 207.176 16.256C207.805 16.608 208.509 16.784 209.288 16.784C210.376 16.784 211.272 16.4587 211.976 15.808C212.68 15.1573 213.091 14.2773 213.208 13.168H208.76V11.984H214.76V13.104C214.675 14.0213 214.387 14.864 213.896 15.632C213.405 16.3893 212.76 16.992 211.96 17.44C211.16 17.8773 210.269 18.096 209.288 18.096C208.253 18.096 207.309 17.856 206.456 17.376C205.603 16.8853 204.925 16.208 204.424 15.344C203.933 14.48 203.688 13.504 203.688 12.416C203.688 11.328 203.933 10.352 204.424 9.488C204.925 8.61333 205.603 7.936 206.456 7.456C207.309 6.96533 208.253 6.72 209.288 6.72C210.472 6.72 211.517 7.01333 212.424 7.6C213.341 8.18667 214.008 9.01333 214.424 10.08H212.68ZM223.277 15.52H218.413L217.517 18H215.981L220.013 6.912H221.693L225.709 18H224.173L223.277 15.52ZM222.861 14.336L220.845 8.704L218.829 14.336H222.861ZM228.922 16.816H232.826V18H227.466V6.848H228.922V16.816ZM235.829 16.816H239.733V18H234.373V6.848H235.829V16.816ZM242.735 8.032V11.76H246.799V12.96H242.735V16.8H247.279V18H241.279V6.832H247.279V8.032H242.735ZM255.354 18L252.698 13.44H250.938V18H249.482V6.848H253.082C253.925 6.848 254.634 6.992 255.21 7.28C255.797 7.568 256.234 7.95733 256.522 8.448C256.81 8.93867 256.954 9.49867 256.954 10.128C256.954 10.896 256.73 11.5733 256.282 12.16C255.845 12.7467 255.183 13.136 254.298 13.328L257.098 18H255.354ZM250.938 12.272H253.082C253.871 12.272 254.463 12.08 254.858 11.696C255.253 11.3013 255.45 10.7787 255.45 10.128C255.45 9.46667 255.253 8.95467 254.858 8.592C254.474 8.22933 253.882 8.048 253.082 8.048H250.938V12.272ZM267.024 6.848L263.392 13.792V18H261.936V13.792L258.288 6.848H259.904L262.656 12.496L265.408 6.848H267.024Z" fill="black"/>
<path d="M304.688 12.416C304.688 11.328 304.933 10.352 305.424 9.488C305.915 8.61333 306.581 7.93067 307.424 7.44C308.277 6.94933 309.221 6.704 310.256 6.704C311.472 6.704 312.533 6.99733 313.44 7.584C314.347 8.17067 315.008 9.00267 315.424 10.08H313.68C313.371 9.408 312.923 8.89067 312.336 8.528C311.76 8.16533 311.067 7.984 310.256 7.984C309.477 7.984 308.779 8.16533 308.16 8.528C307.541 8.89067 307.056 9.408 306.704 10.08C306.352 10.7413 306.176 11.52 306.176 12.416C306.176 13.3013 306.352 14.08 306.704 14.752C307.056 15.4133 307.541 15.9253 308.16 16.288C308.779 16.6507 309.477 16.832 310.256 16.832C311.067 16.832 311.76 16.656 312.336 16.304C312.923 15.9413 313.371 15.424 313.68 14.752H315.424C315.008 15.8187 314.347 16.6453 313.44 17.232C312.533 17.808 311.472 18.096 310.256 18.096C309.221 18.096 308.277 17.856 307.424 17.376C306.581 16.8853 305.915 16.208 305.424 15.344C304.933 14.48 304.688 13.504 304.688 12.416ZM322.647 18.112C321.613 18.112 320.669 17.872 319.815 17.392C318.962 16.9013 318.285 16.224 317.783 15.36C317.293 14.4853 317.047 13.504 317.047 12.416C317.047 11.328 317.293 10.352 317.783 9.488C318.285 8.61333 318.962 7.936 319.815 7.456C320.669 6.96533 321.613 6.72 322.647 6.72C323.693 6.72 324.642 6.96533 325.495 7.456C326.349 7.936 327.021 8.608 327.511 9.472C328.002 10.336 328.247 11.3173 328.247 12.416C328.247 13.5147 328.002 14.496 327.511 15.36C327.021 16.224 326.349 16.9013 325.495 17.392C324.642 17.872 323.693 18.112 322.647 18.112ZM322.647 16.848C323.426 16.848 324.125 16.6667 324.743 16.304C325.373 15.9413 325.863 15.424 326.215 14.752C326.578 14.08 326.759 13.3013 326.759 12.416C326.759 11.52 326.578 10.7413 326.215 10.08C325.863 9.408 325.378 8.89067 324.759 8.528C324.141 8.16533 323.437 7.984 322.647 7.984C321.858 7.984 321.154 8.16533 320.535 8.528C319.917 8.89067 319.426 9.408 319.063 10.08C318.711 10.7413 318.535 11.52 318.535 12.416C318.535 13.3013 318.711 14.08 319.063 14.752C319.426 15.424 319.917 15.9413 320.535 16.304C321.165 16.6667 321.869 16.848 322.647 16.848ZM338.938 18H337.482L331.626 9.12V18H330.17V6.832H331.626L337.482 15.696V6.832H338.938V18ZM348.284 6.848V8.032H345.244V18H343.788V8.032H340.732V6.848H348.284ZM356.668 15.52H351.804L350.908 18H349.372L353.404 6.912H355.084L359.1 18H357.564L356.668 15.52ZM356.252 14.336L354.236 8.704L352.22 14.336H356.252ZM360.313 12.416C360.313 11.328 360.558 10.352 361.049 9.488C361.54 8.61333 362.206 7.93067 363.049 7.44C363.902 6.94933 364.846 6.704 365.881 6.704C367.097 6.704 368.158 6.99733 369.065 7.584C369.972 8.17067 370.633 9.00267 371.049 10.08H369.305C368.996 9.408 368.548 8.89067 367.961 8.528C367.385 8.16533 366.692 7.984 365.881 7.984C365.102 7.984 364.404 8.16533 363.785 8.528C363.166 8.89067 362.681 9.408 362.329 10.08C361.977 10.7413 361.801 11.52 361.801 12.416C361.801 13.3013 361.977 14.08 362.329 14.752C362.681 15.4133 363.166 15.9253 363.785 16.288C364.404 16.6507 365.102 16.832 365.881 16.832C366.692 16.832 367.385 16.656 367.961 16.304C368.548 15.9413 368.996 15.424 369.305 14.752H371.049C370.633 15.8187 369.972 16.6453 369.065 17.232C368.158 17.808 367.097 18.096 365.881 18.096C364.846 18.096 363.902 17.856 363.049 17.376C362.206 16.8853 361.54 16.208 361.049 15.344C360.558 14.48 360.313 13.504 360.313 12.416ZM380.08 6.848V8.032H377.04V18H375.584V8.032H372.528V6.848H380.08Z" fill="black"/>
</svg>
